<?xml version="1.0" standalone="no"?>
<!DOCTYPE svg PUBLIC "-//W3C//DTD SVG 20010904//EN"
 "http://www.w3.org/TR/2001/REC-SVG-20010904/DTD/svg10.dtd">
<svg version="1.0" xmlns="http://www.w3.org/2000/svg"
 width="505.000000pt" height="479.000000pt" viewBox="0 0 505.000000 479.000000"
 preserveAspectRatio="xMidYMid meet">
<metadata>
Created by potrace 1.16, written by Peter Selinger 2001-2019
</metadata>
<g transform="translate(0.000000,479.000000) scale(0.100000,-0.100000)"
fill="#000000" stroke="none">
<path d="M2205 4070 c-392 -45 -731 -205 -1009 -478 -558 -548 -664 -1410
-254 -2080 300 -491 851 -802 1421 -802 457 0 878 177 1202 505 447 452 599
1114 393 1720 -227 669 -833 1117 -1542 1140 -72 2 -167 0 -211 -5z m367 -65
c374 -49 695 -209 954 -476 228 -237 365 -495 436 -822 30 -140 32 -452 4
-602 -121 -655 -619 -1163 -1280 -1307 -87 -19 -131 -22 -316 -22 -185 0 -229
3 -318 22 -499 109 -907 425 -1136 880 -48 96 -122 319 -141 427 -93 534 89
1092 476 1460 272 258 581 400 974 448 76 10 244 6 347 -8z"/>
<path d="M2220 3959 c-563 -64 -1040 -407 -1272 -915 -115 -251 -164 -524
-140 -782 26 -280 109 -517 257 -742 232 -352 588 -590 1015 -681 152 -33 448
-33 600 0 646 137 1115 606 1251 1251 27 127 32 416 11 540 -84 474 -346 864
-747 1110 -281 172 -652 256 -975 219z m-167 -220 c70 -37 37 -114 -48 -114
-49 0 -85 25 -85 60 0 49 80 81 133 54z m-234 -126 c53 -75 54 -105 4 -132
-27 -14 -70 -14 -78 -1 -4 6 7 13 24 16 37 8 54 26 45 48 -6 15 -8 15 -26 -3
-27 -30 -82 -28 -113 4 -14 13 -25 29 -25 35 0 17 47 60 67 60 10 0 27 7 37
15 11 8 21 15 22 15 1 0 21 -26 43 -57z m742 -232 c181 -57 298 -200 330 -402
19 -123 -4 -201 -118 -410 -75 -137 -112 -236 -113 -299 0 -43 2 -46 33 -55
l32 -10 3 -132 3 -132 -65 -80 c-41 -50 -63 -87 -60 -96 4 -8 8 -15 9 -15 2 0
84 30 182 67 98 36 199 68 226 71 43 4 50 1 82 -31 43 -43 48 -98 14 -141 -14
-18 -130 -81 -338 -186 l-318 -158 -209 29 c-115 16 -217 29 -226 29 -11 0
-18 -10 -20 -27 l-3 -28 -90 0 -90 0 -10 33 -9 32 -71 0 c-42 0 -76 5 -83 12
-15 15 -17 310 -2 339 9 16 22 19 85 19 67 0 75 2 75 19 0 37 27 51 96 51 77
0 104 -12 104 -45 0 -24 2 -25 70 -25 l71 0 -51 67 -51 67 3 130 3 131 33 10
c30 9 32 12 32 55 -1 64 -37 160 -118 307 -117 215 -137 296 -108 433 42 199
163 328 358 380 90 25 212 21 309 -9z m-1103 -38 c36 -49 -15 -123 -85 -123
-92 0 -98 101 -8 141 28 12 77 2 93 -18z m1992 -73 c18 -9 75 -109 67 -116 -2
-2 -34 -12 -71 -21 -58 -15 -68 -16 -76 -3 -5 8 -7 17 -5 21 3 3 -4 14 -15 24
-27 25 -26 70 2 89 26 18 70 21 98 6z m-2226 -65 c-28 -28 -29 -42 -9 -69 22
-30 82 -27 106 5 11 13 17 31 15 41 -3 14 1 15 25 6 33 -11 36 -24 12 -58 -24
-35 -43 -48 -86 -60 -47 -13 -100 1 -122 33 -21 31 -19 89 5 120 18 23 24 25
49 16 l29 -10 -24 -24z m1534 -2079 c-1 -1 -25 -10 -51 -20 -59 -22 -83 -60
-52 -83 25 -18 70 -10 109 18 23 17 30 19 37 8 13 -21 12 -24 -32 -48 -23 -13
-65 -25 -97 -28 -48 -4 -61 -2 -84 17 -16 12 -28 28 -28 36 0 28 65 85 125
109 52 21 61 22 68 9 5 -9 7 -17 5 -18z m-600 -27 c12 -5 22 -14 22 -20 0 -6
16 -43 35 -80 24 -48 31 -69 21 -69 -35 0 -76 14 -76 26 0 17 -104 48 -135 40
-14 -4 -39 1 -60 11 l-35 17 57 30 c32 17 69 39 83 49 24 16 34 16 88 -4z
m305 -34 c29 -6 38 -37 15 -52 -9 -5 -3 -9 17 -13 20 -3 31 -12 33 -26 4 -31
-40 -47 -147 -52 l-94 -5 6 33 c4 18 7 52 7 76 l0 43 53 3 c55 3 66 3 110 -7z"/>
<path d="M2295 3340 c-218 -48 -349 -208 -349 -425 0 -95 14 -134 114 -315 79
-144 120 -257 120 -329 l0 -51 55 0 55 0 0 70 0 70 -35 0 c-32 0 -35 2 -35 30
l0 30 170 0 170 0 0 -30 c0 -28 -3 -30 -35 -30 l-35 0 0 -70 0 -70 55 0 55 0
0 51 c0 72 41 185 120 329 115 211 132 274 107 396 -35 163 -129 274 -275 325
-65 23 -197 33 -257 19z m253 -120 c18 -11 44 -20 58 -20 65 0 118 -58 115
-125 -5 -120 1 -174 23 -214 29 -53 17 -117 -28 -158 -30 -28 -43 -33 -86 -33
-32 0 -61 -7 -82 -20 -28 -17 -51 -20 -153 -20 -101 0 -126 3 -158 20 -22 12
-56 20 -86 20 -101 0 -162 103 -114 193 22 40 27 91 22 212 -3 67 50 125 116
125 14 0 42 9 62 20 32 17 57 20 158 20 102 0 125 -3 153 -20z"/>
<path d="M2280 3177 c0 -1 9 -20 20 -42 27 -53 25 -65 -7 -65 -20 1 -34 10
-48 33 -34 54 -104 48 -126 -11 -13 -34 5 -62 40 -62 16 0 39 -9 52 -19 24
-20 24 -20 4 -35 -13 -10 -31 -13 -51 -10 -42 8 -57 -12 -42 -53 10 -28 9 -34
-15 -63 -33 -39 -34 -70 -4 -98 39 -36 88 -28 113 19 10 21 22 29 40 29 24 0
26 -3 20 -32 -15 -74 -15 -73 34 -73 l45 0 3 68 c3 67 3 67 32 67 l30 0 0 -71
0 -70 48 3 c51 3 51 2 36 76 -6 31 -5 32 25 32 21 0 31 -5 31 -15 0 -25 38
-55 69 -55 20 0 36 9 50 26 28 35 26 56 -6 94 -23 28 -25 36 -16 60 15 41 -1
63 -41 56 -20 -3 -38 0 -51 10 -20 15 -20 15 4 35 13 10 36 19 52 19 35 0 53
28 40 62 -22 59 -92 65 -126 11 -14 -23 -28 -32 -47 -33 -33 0 -35 12 -8 65
11 22 20 41 20 42 0 2 -49 3 -110 3 -60 0 -110 -1 -110 -3z"/>
<path d="M2153 2152 c-42 -3 -43 -4 -43 -38 l0 -34 278 2 277 3 3 33 3 32 -73
0 c-40 0 -147 2 -238 3 -91 1 -184 1 -207 -1z"/>
<path d="M2117 2013 c-18 -18 -2 -57 54 -127 l61 -76 158 0 158 0 61 77 c45
57 61 85 59 103 l-3 25 -271 3 c-149 1 -273 -1 -277 -5z"/>
<path d="M2814 1758 c-163 -61 -193 -75 -207 -100 -9 -15 -28 -33 -42 -38 -15
-6 -105 -10 -201 -10 l-174 0 0 30 0 30 173 0 c179 0 197 4 197 42 0 34 -32
38 -292 36 l-253 -3 0 -124 0 -124 219 -32 219 -32 309 155 c249 124 309 158
314 177 9 35 -12 65 -44 64 -15 -1 -113 -33 -218 -71z"/>
<path d="M1880 1620 l0 -190 35 0 35 0 0 190 0 190 -35 0 -35 0 0 -190z"/>
<path d="M1710 1625 l0 -125 50 0 50 0 0 125 0 125 -50 0 -50 0 0 -125z"/>
</g>
</svg>
