<svg width="180" height="180" viewBox="0 0 180 180" fill="none" xmlns="http://www.w3.org/2000/svg">
<g clip-path="url(#clip0_4352_888)">
<path d="M151.507 139.163C143.519 126.292 125.936 112.5 89.9919 112.5C54.0482 112.5 36.4757 126.281 28.4769 139.163C35.8466 148.401 45.2047 155.86 55.8551 160.982C66.5054 166.105 78.1737 168.76 89.9919 168.75C101.81 168.76 113.478 166.105 124.129 160.982C134.779 155.86 144.137 148.401 151.507 139.163V139.163Z" fill="black"/>
<path fill-rule="evenodd" clip-rule="evenodd" d="M90 101.25C98.9511 101.25 107.536 97.6942 113.865 91.3649C120.194 85.0355 123.75 76.4511 123.75 67.5C123.75 58.5489 120.194 49.9645 113.865 43.6351C107.536 37.3058 98.9511 33.75 90 33.75C81.0489 33.75 72.4645 37.3058 66.1351 43.6351C59.8058 49.9645 56.25 58.5489 56.25 67.5C56.25 76.4511 59.8058 85.0355 66.1351 91.3649C72.4645 97.6942 81.0489 101.25 90 101.25V101.25Z" fill="black"/>
<path fill-rule="evenodd" clip-rule="evenodd" d="M90 11.25C69.1142 11.25 49.0838 19.5469 34.3153 34.3153C19.5469 49.0838 11.25 69.1142 11.25 90C11.25 110.886 19.5469 130.916 34.3153 145.685C49.0838 160.453 69.1142 168.75 90 168.75C110.886 168.75 130.916 160.453 145.685 145.685C160.453 130.916 168.75 110.886 168.75 90C168.75 69.1142 160.453 49.0838 145.685 34.3153C130.916 19.5469 110.886 11.25 90 11.25V11.25ZM0 90C0 66.1305 9.48212 43.2387 26.3604 26.3604C43.2387 9.48212 66.1305 0 90 0C113.869 0 136.761 9.48212 153.64 26.3604C170.518 43.2387 180 66.1305 180 90C180 113.869 170.518 136.761 153.64 153.64C136.761 170.518 113.869 180 90 180C66.1305 180 43.2387 170.518 26.3604 153.64C9.48212 136.761 0 113.869 0 90V90Z" fill="black"/>
</g>
<defs>
<clipPath id="clip0_4352_888">
<rect width="180" height="180" fill="white"/>
</clipPath>
</defs>
</svg>
